# xmcd CD database file
#
# Track frame offsets:
#	150
#	25188
#	41725
#	61998
#	78261
#	93636
#	112914
#	138230
#	162896
#	176628
#	196312
#	226154
#	247828
#	271640
#	285236
#
# Disc length: 4148 seconds
#
# Revision: 0
# Processed by: cddbd v1.4PL0 Copyright (c) Steve Scherf et al.
# Submitted via: CDex 1.50
#
DISCID=b610320f
DTITLE=Duke Ellington - Money Jungle
DYEAR=2002
DGENRE=Jazz
TTITLE0=Money Jungle
TTITLE1=Fleurette Africaine
TTITLE2=Very Special
TTITLE3=Warm Valley
TTITLE4=Wig Wise
TTITLE5=Cravan
TTITLE6=Solitude
TTITLE7=Switch Blade
TTITLE8=A Little Max (Parfait)
TTITLE9=REM Blues
TTITLE10=Backward Country Boy Blues
TTITLE11=Solitude (alternate take)
TTITLE12=Switch Blade (alternate take)
TTITLE13=A Little Max (Parfait) (alternate take)
TTITLE14=*REM Blues (alternate take)
EXTD=YEAR: 2002
EXTT0=
EXTT1=
EXTT2=
EXTT3=
EXTT4=
EXTT5=
EXTT6=
EXTT7=
EXTT8=
EXTT9=
EXTT10=
EXTT11=
EXTT12=
EXTT13=
EXTT14=
PLAYORDER=
